<svg width="482" height="438" viewBox="0 0 482 438" fill="none" xmlns="http://www.w3.org/2000/svg">
<path d="M325.442 416.573C292.96 429.383 259.592 432.393 225.48 429.493C175.466 425.241 132.272 405.057 94.1464 373.107C92.2445 371.513 90.5181 369.709 88.2621 367.581C59.2793 390.802 30.2676 414.047 0.840341 437.624C-0.210043 434.702 1.29103 433.391 2.18891 432.021C22.3785 401.214 39.9949 368.851 59.4109 337.578C60.8881 335.198 60.5658 333.394 59.2263 331.182C44.648 307.108 35.1759 281.122 30.9832 253.322C27.868 232.667 28.0502 211.971 30.4062 191.151C34.8923 151.508 51.0073 117.015 75.6256 86.2247C111.099 41.8567 157.232 14.5502 212.778 4.07172C263.344 -5.46728 311.402 3.62977 356.704 27.7654C357.726 28.3099 358.689 28.9819 359.615 29.6808C359.979 29.956 360.165 30.468 360.613 31.1456C359.147 33.5776 356.502 34.2939 354.158 35.3194C328.344 46.6124 301.234 53.1694 273.467 57.3214C254.404 60.1719 235.034 61.1973 216.352 66.3231C153.522 83.5621 112.321 123.216 94.8612 186.116C85.8443 218.601 88.6808 251.069 100.494 282.648C101.656 285.756 101.217 287.859 99.0667 290.271C88.8712 301.712 78.7973 313.265 69.5245 325.481C68.0663 327.402 66.07 329.079 65.8603 331.779C67.5432 333.213 69.4574 332.61 71.2022 332.613C93.198 332.657 115.197 332.82 137.188 332.507C142.731 332.428 146.974 334.116 151.315 337.285C169.805 350.78 189.93 361.225 212.52 365.54C269.052 376.338 318.553 363.069 358.732 320.588C380.307 297.778 393.149 270.403 397.419 239.392C400.796 214.872 398.549 190.584 390.668 166.986C389.926 164.764 389.937 162.84 390.707 160.719C397.856 141.006 406.994 122.421 420.936 106.483C426.595 100.014 426.798 99.9581 431.354 107.049C443.667 126.212 451.458 147.277 456.036 169.387C470.391 238.712 456.604 301.831 411.402 356.75C388.677 384.361 359.322 403.682 325.442 416.573Z" fill="black"/>
<path d="M301.722 127.797C255.569 151.922 213.236 180.912 174.39 215.095C155.098 232.071 136.956 250.158 119.278 268.757C118.283 269.805 117.515 271.247 115.767 271.269C106.283 249.637 128.135 186.56 151.953 167.941C153.229 181.433 150.906 194.553 151.547 208.227C154.959 206.726 155.958 203.915 157.605 201.808C161.81 196.43 165.563 190.671 170.048 185.547C172.928 182.257 173.955 178.936 173.831 174.714C173.605 167.056 173.92 159.383 173.747 151.722C173.66 147.866 175.065 145.181 178.021 142.726C206.469 119.098 238.926 102.84 273.534 90.515C315.56 75.5478 358.148 62.1166 399.43 45.1196C426.064 34.1539 452.792 23.3398 478.11 9.44559C479.106 8.89923 480.079 8.16907 481.747 8.72861C481.32 11.4904 479.176 13.1956 477.486 14.9742C449.591 44.3281 417.82 68.5824 381.822 87.2035C355.344 100.9 328.21 113.303 301.722 127.797Z" fill="black"/>
<path d="M382.731 118.692C373.85 132.337 368.262 147.166 362.114 161.718C353.64 181.773 342.802 200.382 329.024 217.283C326.151 220.807 323.001 222.27 318.349 222.253C281.887 222.123 245.424 222.261 208.962 222.305C207.173 222.307 205.337 222.494 203.367 221.54C203.784 218.405 206.391 217.246 208.287 215.609C239.102 189.02 273.621 168.07 309.429 149.05C332.216 136.947 355.173 125.188 378.446 114.052C380.907 112.875 383.301 111.306 386.579 111.143C386.465 114.52 384.037 116.133 382.731 118.692Z" fill="black"/>
<path d="M165.07 266.335C161.649 266.142 158.629 266.948 155.783 265.727C155.13 263.48 156.926 262.657 158.034 261.59C164.153 255.695 170.414 249.945 176.469 243.986C179.034 241.462 181.822 240.538 185.411 240.55C216.737 240.659 248.064 240.613 279.391 240.612C288.351 240.612 297.311 240.612 306.437 240.612C307.126 242.648 305.197 243.657 303.974 244.78C295.611 252.463 286.597 259.28 276.779 265.031C274.446 266.397 272.026 266.336 269.534 266.336C234.875 266.332 200.215 266.33 165.07 266.335Z" fill="black"/>
<path d="M143.17 284.82C176.924 284.821 210.2 284.821 243.477 284.821C243.586 285.575 243.695 286.328 243.805 287.082C230.184 295.586 215.534 301.748 199.749 305.219C176.647 310.299 128.112 309.925 118.086 304.438C123.646 297.96 129.239 291.659 135.463 285.958C137.464 284.126 140.233 284.939 143.17 284.82Z" fill="black"/>
</svg>
