<?xml version="1.0" standalone="no"?>
<!DOCTYPE svg PUBLIC "-//W3C//DTD SVG 20010904//EN"
 "http://www.w3.org/TR/2001/REC-SVG-20010904/DTD/svg10.dtd">
<svg version="1.0" xmlns="http://www.w3.org/2000/svg"
 width="964.000000pt" height="964.000000pt" viewBox="0 0 964.000000 964.000000"
 preserveAspectRatio="xMidYMid meet">
<metadata>
Created by potrace 1.14, written by Peter Selinger 2001-2017
</metadata>
<g transform="translate(0.000000,964.000000) scale(0.100000,-0.100000)"
fill="#000000" stroke="none">
<path d="M4987 9194 c-1 -1 -69 -5 -152 -9 -150 -7 -230 -12 -230 -15 0 -1
-16 -3 -35 -4 -43 -3 -147 -16 -175 -22 -11 -2 -35 -7 -54 -10 -18 -3 -43 -8
-55 -10 -11 -3 -32 -7 -46 -9 -14 -2 -36 -7 -50 -10 -14 -4 -32 -8 -40 -9 -8
-1 -31 -6 -50 -10 -19 -4 -44 -9 -55 -11 -11 -2 -20 -4 -20 -5 0 -1 -7 -3 -15
-5 -8 -1 -35 -8 -60 -15 -25 -7 -52 -13 -60 -15 -56 -11 -360 -107 -419 -133
-20 -9 -43 -17 -52 -18 -9 -2 -46 -17 -83 -34 -37 -16 -74 -30 -82 -30 -8 0
-14 -5 -14 -10 0 -6 -3 -9 -7 -8 -12 4 -143 -55 -143 -64 0 -5 -6 -8 -14 -8
-13 0 -61 -24 -226 -112 -51 -27 -118 -66 -178 -104 -28 -19 -55 -33 -58 -33
-4 0 -10 -3 -13 -8 -3 -4 -42 -32 -86 -62 -85 -59 -243 -175 -287 -213 -15
-13 -46 -39 -70 -58 -88 -73 -137 -118 -283 -265 -170 -172 -210 -214 -285
-305 -29 -36 -57 -66 -61 -68 -5 -2 -9 -10 -9 -17 0 -7 -4 -15 -8 -17 -5 -1
-34 -37 -65 -78 -32 -41 -61 -79 -65 -85 -4 -5 -30 -41 -56 -80 -27 -38 -53
-73 -58 -76 -6 -3 -10 -10 -11 -15 0 -5 -21 -40 -45 -79 -25 -38 -53 -83 -62
-100 -10 -16 -34 -59 -55 -95 -117 -204 -293 -603 -330 -750 -1 -3 -4 -12 -8
-20 -6 -16 -30 -103 -28 -107 0 -2 -6 -21 -14 -43 -8 -22 -12 -40 -9 -40 2 0
0 -8 -5 -17 -5 -10 -11 -31 -14 -48 -3 -16 -8 -41 -12 -55 -3 -14 -7 -36 -10
-50 -3 -14 -7 -36 -10 -50 -10 -50 -14 -70 -30 -180 -35 -237 -50 -459 -49
-745 1 -181 10 -384 19 -435 2 -9 6 -43 10 -75 4 -33 9 -71 11 -85 3 -14 7
-43 10 -65 3 -22 7 -50 10 -62 2 -13 6 -35 9 -50 35 -180 75 -339 115 -463 12
-36 23 -72 25 -80 9 -40 101 -276 147 -379 71 -157 167 -343 232 -451 36 -58
46 -90 40 -118 -6 -25 -51 -110 -64 -122 -7 -7 -70 -110 -70 -116 0 -2 -20
-35 -45 -74 -25 -39 -45 -75 -45 -80 0 -6 -4 -10 -9 -10 -5 0 -14 -12 -20 -27
-6 -16 -35 -68 -66 -117 -30 -49 -55 -90 -55 -92 0 -1 -47 -81 -105 -178 -58
-97 -105 -181 -105 -186 0 -6 -4 -10 -9 -10 -5 0 -11 -8 -15 -17 -3 -10 -17
-36 -31 -58 -13 -22 -43 -71 -65 -110 -23 -38 -85 -142 -139 -230 -53 -88
-104 -171 -112 -184 -8 -14 -17 -30 -22 -35 -4 -6 -22 -33 -39 -61 -17 -27
-39 -62 -49 -77 -11 -15 -19 -31 -19 -37 0 -5 -4 -11 -8 -13 -4 -1 -29 -36
-55 -77 -43 -69 -56 -108 -41 -124 5 -5 129 86 154 113 3 3 25 21 50 40 25 19
54 43 65 52 11 9 119 96 240 192 121 97 227 182 235 189 8 6 35 28 60 47 59
46 89 71 112 92 10 10 22 18 27 18 5 0 11 3 13 8 2 4 25 25 53 47 27 22 55 45
61 50 6 6 43 35 83 65 39 30 71 58 71 63 0 4 4 7 10 7 9 0 32 16 64 45 6 6 45
38 86 70 41 33 77 62 80 65 3 3 33 27 67 53 34 26 68 53 75 60 7 7 33 28 58
47 25 19 54 43 65 53 18 17 20 16 63 -25 60 -57 71 -67 121 -108 24 -19 57
-46 75 -60 68 -56 275 -210 281 -210 4 0 24 -14 45 -30 21 -17 42 -30 48 -30
6 0 12 -4 14 -8 2 -4 46 -34 98 -67 52 -32 103 -65 113 -73 9 -8 17 -11 17 -7
0 4 8 2 18 -6 9 -8 34 -24 55 -34 20 -11 37 -23 37 -27 0 -5 8 -8 18 -8 10 0
22 -4 27 -9 9 -8 213 -114 225 -116 3 -1 32 -14 65 -29 33 -15 78 -35 100 -43
22 -9 44 -20 50 -25 5 -4 14 -8 21 -8 6 0 29 -8 50 -17 22 -9 42 -18 47 -19 4
-1 9 -3 12 -4 3 -1 8 -3 13 -5 7 -2 18 -6 77 -28 17 -7 33 -12 38 -13 4 -1 8
-2 10 -3 1 -2 13 -4 26 -7 14 -2 29 -8 35 -13 6 -5 29 -12 51 -16 22 -4 44
-10 50 -13 5 -4 15 -7 20 -8 6 -1 46 -12 90 -23 68 -19 212 -51 293 -67 12 -2
34 -7 50 -10 15 -3 41 -7 57 -9 17 -2 45 -6 63 -9 52 -9 83 -14 142 -20 30 -3
78 -9 105 -12 111 -13 213 -16 500 -17 270 -1 376 3 500 19 148 18 143 17 250
34 39 6 88 15 110 20 22 5 56 12 75 15 19 3 60 13 90 21 30 8 62 16 70 18 8 1
35 8 60 16 25 7 52 14 60 15 8 1 22 5 30 8 27 11 255 88 266 91 7 1 19 7 27
14 8 7 19 12 23 11 5 -1 20 2 34 8 176 74 219 93 304 134 32 16 64 29 71 29 7
0 15 3 17 8 2 4 21 16 43 27 33 17 187 103 322 181 18 11 33 22 33 27 0 4 4 7
10 7 8 0 127 77 140 90 3 3 35 27 72 53 36 26 72 53 80 59 7 7 36 31 63 52 28
22 57 47 66 55 9 9 45 42 81 73 36 32 105 99 154 149 101 104 90 92 169 184
33 39 63 72 68 73 4 2 7 10 7 17 0 7 3 15 8 17 4 2 35 39 69 83 79 101 70 89
123 165 24 36 48 67 52 68 4 2 8 8 8 14 0 6 11 26 25 44 14 18 25 35 25 38 0
2 18 32 40 65 22 33 40 65 40 71 0 5 5 10 10 10 6 0 10 5 10 11 0 7 10 28 22
48 12 19 23 42 25 50 1 8 6 17 11 20 12 8 104 194 161 326 23 55 49 114 56
130 13 31 94 258 100 285 19 72 37 138 42 150 7 17 6 12 27 105 9 39 19 86 22
105 3 19 7 37 9 40 6 9 39 208 50 295 30 238 40 643 21 880 -5 61 -10 126 -11
145 -3 32 -7 71 -21 175 -3 22 -9 65 -14 95 -5 30 -12 71 -15 90 -3 19 -8 49
-12 65 -3 17 -7 39 -9 50 -4 33 -45 219 -51 235 -3 8 -7 21 -9 28 -17 85 -139
460 -159 492 -5 8 -10 20 -11 25 -3 18 -73 168 -126 270 -28 55 -56 110 -62
122 -6 13 -14 23 -18 23 -5 0 -8 5 -8 10 0 9 -69 125 -95 158 -25 33 -56 59
-70 59 -22 0 -128 -115 -215 -232 -25 -33 -47 -62 -50 -65 -3 -3 -20 -27 -38
-55 -17 -27 -35 -54 -40 -60 -28 -34 -233 -414 -232 -430 1 -3 -9 -27 -21 -53
-11 -26 -44 -103 -72 -172 -58 -144 -62 -189 -28 -290 12 -36 24 -72 26 -80 2
-8 13 -53 25 -100 12 -47 24 -98 27 -115 2 -16 8 -43 13 -60 5 -16 11 -48 14
-70 3 -22 8 -53 11 -70 4 -16 8 -52 11 -80 2 -27 7 -84 11 -125 9 -98 9 -423
0 -525 -11 -118 -16 -168 -22 -191 -2 -11 -7 -45 -11 -75 -4 -30 -11 -65 -16
-78 -5 -13 -6 -26 -4 -28 3 -3 0 -16 -5 -30 -5 -14 -12 -42 -15 -62 -3 -20
-10 -44 -15 -53 -5 -10 -8 -18 -5 -18 3 0 1 -12 -4 -27 -101 -319 -146 -430
-269 -658 -34 -62 -191 -303 -213 -327 -7 -7 -39 -45 -70 -85 -92 -114 -249
-278 -368 -382 -19 -17 -44 -39 -55 -49 -64 -57 -296 -229 -345 -254 -14 -7
-27 -15 -30 -18 -5 -6 -34 -23 -135 -80 -82 -47 -290 -144 -325 -152 -8 -2
-17 -5 -20 -8 -6 -6 -128 -50 -155 -56 -11 -2 -31 -8 -45 -14 -14 -5 -34 -11
-45 -13 -11 -2 -40 -9 -65 -16 -25 -7 -52 -14 -60 -16 -8 -2 -49 -10 -90 -18
-41 -9 -97 -19 -125 -23 -27 -3 -59 -8 -70 -10 -11 -2 -49 -7 -85 -10 -36 -3
-85 -7 -110 -9 -66 -7 -321 -7 -347 -1 -13 2 -25 0 -28 -5 -4 -5 -12 -6 -18
-2 -7 4 -28 8 -47 10 -147 8 -206 15 -360 40 -52 8 -105 16 -117 18 -12 2 -34
6 -50 9 -15 4 -39 8 -52 11 -13 2 -38 9 -56 15 -18 6 -43 13 -56 15 -35 7
-192 56 -204 64 -5 4 -28 13 -50 20 -44 14 -74 28 -210 91 -49 24 -102 52
-117 62 -16 11 -28 17 -28 14 0 -7 -193 108 -236 141 -17 13 -36 23 -42 23 -6
0 -16 8 -21 18 -6 9 -11 13 -11 7 0 -6 -3 -6 -8 1 -19 29 -213 147 -263 161
-13 4 -355 8 -759 9 -404 1 -745 2 -757 3 -46 2 -35 62 24 126 10 11 37 45 60
77 23 31 53 68 65 82 13 13 45 53 73 88 27 35 52 65 55 68 3 3 43 50 90 105
47 55 89 105 95 111 5 6 37 42 70 80 33 37 67 75 75 84 35 36 61 82 62 107 0
16 -14 71 -31 123 -51 149 -108 346 -125 430 -3 14 -8 36 -11 50 -3 14 -7 40
-10 58 -2 18 -6 36 -9 40 -5 9 -17 105 -33 257 -14 146 -5 575 14 655 6 27 6
28 18 110 4 30 9 58 11 62 3 4 7 21 9 37 10 81 124 458 171 566 10 22 18 45
20 50 1 6 13 36 27 68 15 31 26 60 27 62 2 15 125 251 132 253 4 2 8 12 8 22
0 10 3 20 8 22 9 4 41 57 49 81 3 9 9 17 14 17 5 0 9 4 9 10 0 8 95 155 110
170 3 3 34 43 70 90 89 117 107 137 255 285 147 147 221 211 400 343 44 32
187 122 194 122 5 0 11 3 13 8 3 7 28 21 143 81 39 20 72 39 73 44 2 4 7 7 11
7 5 0 48 19 97 42 49 23 91 42 94 43 3 0 53 20 112 43 58 23 109 42 112 42 2
0 17 5 33 12 15 6 33 12 38 14 6 2 55 17 110 35 104 32 275 79 310 84 11 2 61
10 110 19 89 17 103 19 180 30 22 4 54 8 70 11 30 5 63 9 160 20 28 4 61 8 75
9 14 2 52 6 85 10 33 4 71 9 85 11 45 8 114 17 150 20 19 2 67 9 105 16 39 7
84 13 100 15 17 1 37 4 45 7 8 3 33 9 55 12 22 4 54 9 70 11 17 3 36 6 43 6 6
1 12 5 12 9 0 5 6 6 14 3 8 -3 31 -1 52 5 22 6 57 13 79 17 22 3 47 10 55 14
8 4 20 8 25 8 8 1 67 12 85 17 3 1 21 5 40 9 19 4 91 24 160 43 69 19 130 36
135 37 6 1 16 5 23 9 6 5 12 6 12 2 0 -3 9 -1 21 5 11 6 29 13 39 15 11 2 77
25 147 50 70 26 133 48 138 49 58 15 311 131 327 150 22 27 22 31 -4 56 -23
21 -362 192 -428 215 -9 3 -84 36 -117 51 -17 8 -37 14 -45 14 -8 0 -18 4 -23
9 -16 15 -428 150 -475 156 -8 1 -53 12 -100 24 -47 13 -107 27 -135 31 -27 5
-63 12 -80 15 -75 14 -150 27 -186 31 -21 2 -58 6 -81 9 -118 15 -522 36 -531
29z"/>
<path d="M9530 8994 c-64 -36 -340 -177 -350 -179 -3 -1 -63 -29 -133 -63 -71
-34 -130 -62 -132 -62 -2 0 -43 -18 -90 -40 -47 -22 -88 -40 -90 -40 -3 0 -33
-13 -67 -28 -35 -16 -101 -44 -148 -63 -47 -19 -87 -37 -90 -40 -3 -3 -23 -12
-45 -19 -22 -7 -68 -26 -103 -41 -34 -16 -65 -29 -68 -29 -3 0 -20 -6 -37 -14
-18 -8 -72 -31 -122 -51 -49 -19 -99 -40 -110 -45 -66 -30 -408 -162 -422
-163 -7 0 -13 -4 -13 -9 0 -4 -5 -8 -11 -8 -6 0 -104 -34 -218 -76 -113 -42
-210 -77 -216 -79 -5 -1 -23 -8 -40 -14 -16 -7 -34 -14 -40 -15 -5 -2 -17 -6
-25 -9 -42 -16 -454 -159 -468 -162 -9 -2 -53 -17 -97 -33 -44 -16 -129 -46
-190 -66 -60 -20 -119 -41 -130 -46 -11 -4 -67 -24 -125 -44 -216 -72 -623
-217 -695 -247 -16 -7 -32 -13 -35 -13 -12 -2 -133 -53 -199 -83 -18 -8 -39
-16 -45 -18 -50 -11 -646 -309 -654 -327 -2 -5 -7 -8 -12 -8 -4 0 -56 -29
-115 -65 -59 -36 -111 -65 -115 -65 -5 0 -10 -4 -12 -8 -1 -4 -43 -35 -93 -67
-49 -33 -94 -64 -100 -68 -5 -4 -42 -31 -81 -60 -197 -144 -275 -213 -300
-266 -16 -32 -18 -73 -19 -343 -1 -238 -4 -310 -14 -322 -7 -9 -10 -16 -6 -16
9 0 -35 -71 -57 -91 -10 -9 -18 -19 -18 -23 0 -4 -9 -16 -20 -28 -10 -12 -72
-93 -137 -182 -117 -159 -166 -216 -185 -216 -7 0 -8 75 -3 223 10 345 12 543
4 563 -4 11 -8 13 -8 7 -1 -7 -6 -13 -11 -13 -19 0 -144 -135 -207 -224 -12
-17 -26 -35 -30 -41 -5 -5 -26 -39 -48 -75 -22 -36 -46 -75 -53 -85 -25 -39
-165 -329 -165 -342 0 -7 -3 -13 -7 -13 -3 0 -14 -24 -25 -52 -10 -29 -21 -57
-25 -63 -4 -5 -10 -23 -14 -40 -4 -16 -15 -52 -26 -80 -49 -131 -121 -416
-136 -546 -9 -77 -10 -326 -1 -376 4 -24 15 -59 23 -78 18 -45 20 -43 141 84
129 138 574 580 698 696 59 55 119 111 134 125 79 73 258 233 311 276 19 16
42 36 50 44 9 8 38 33 65 55 27 22 57 48 67 58 10 9 20 17 23 17 3 0 13 8 23
18 22 19 32 28 139 113 43 34 80 64 83 68 3 3 12 11 22 16 30 19 143 108 146
117 2 4 10 8 17 8 7 0 15 3 17 8 2 4 30 27 63 51 33 25 62 47 65 50 3 3 13 11
22 16 23 14 198 138 212 150 6 6 52 37 101 70 50 33 92 62 95 65 3 3 30 21 60
40 30 19 60 38 65 43 6 4 42 28 80 52 39 24 75 49 82 54 7 6 14 11 17 11 2 0
53 31 113 68 152 96 509 302 522 302 6 0 11 5 11 11 0 5 5 7 10 4 6 -3 10 -2
10 2 0 9 76 50 94 51 5 0 12 4 15 9 3 4 26 18 51 31 25 13 88 47 140 75 254
137 352 187 364 186 5 0 12 3 15 8 8 12 532 273 548 273 6 0 13 4 15 8 3 8
233 121 245 121 3 -1 9 3 12 8 3 4 92 50 196 102 105 52 193 99 196 104 3 5 8
7 10 6 5 -5 241 125 335 183 21 13 46 27 54 31 22 10 266 169 290 190 11 9 23
17 26 17 6 0 270 189 304 217 8 7 51 41 95 75 74 58 109 87 139 113 6 6 29 25
51 43 141 118 273 240 460 427 170 171 205 211 205 240 0 24 -30 17 -100 -21z"/>
<path d="M7660 6961 c-25 -8 -47 -17 -50 -20 -3 -3 -30 -17 -60 -31 -30 -13
-66 -32 -80 -41 -14 -9 -36 -20 -48 -24 -32 -10 -769 -380 -787 -395 -8 -7
-15 -9 -15 -4 0 5 -4 5 -8 -1 -4 -5 -52 -33 -107 -61 -104 -53 -283 -147 -370
-194 -27 -15 -106 -58 -175 -95 -69 -37 -137 -76 -152 -87 -16 -11 -28 -16
-28 -13 0 3 -12 -2 -27 -13 -16 -11 -44 -28 -63 -38 -29 -16 -347 -205 -414
-247 -17 -10 -117 -75 -166 -107 -139 -90 -236 -155 -240 -160 -3 -3 -31 -22
-62 -43 -31 -21 -63 -43 -70 -50 -7 -6 -36 -28 -63 -46 -28 -19 -52 -38 -55
-41 -3 -3 -30 -23 -60 -45 -30 -22 -57 -42 -60 -45 -3 -3 -45 -37 -95 -75 -96
-74 -128 -101 -154 -126 -9 -8 -38 -33 -66 -55 -110 -86 -142 -137 -92 -146
12 -2 544 -4 1182 -3 l1160 1 45 22 c58 28 66 35 128 112 64 80 62 77 92 120
14 19 28 37 31 40 8 7 159 231 159 236 0 2 15 27 34 56 59 94 206 364 221 408
1 3 18 41 39 85 51 112 59 130 144 335 89 215 187 425 214 458 6 6 7 12 4 12
-4 0 2 13 13 29 12 16 21 34 21 40 0 6 5 11 10 11 6 0 10 5 10 11 0 6 24 48
54 93 50 74 76 124 76 145 0 11 -18 9 -70 -8z"/>
<path d="M3614 4371 c-39 -13 -74 -39 -160 -123 -178 -172 -236 -228 -239
-228 -10 0 -94 -91 -99 -107 -5 -16 0 -23 21 -31 19 -7 392 -10 1188 -8 1251
2 1166 -1 1251 49 42 25 189 122 200 132 6 6 41 32 77 59 37 27 67 53 67 58 0
4 5 8 10 8 6 0 18 8 28 18 10 9 47 42 82 72 86 75 90 79 90 99 0 16 -69 17
-1233 18 -1131 1 -1238 0 -1283 -16z"/>
<path d="M2743 3498 c-42 -11 -372 -356 -373 -389 0 -6 67 -28 105 -35 6 -1
15 -3 20 -4 18 -4 30 -6 100 -14 39 -5 79 -10 90 -13 115 -23 724 -22 955 2
80 8 214 25 236 29 12 2 39 7 60 11 90 14 348 85 379 103 6 4 16 7 24 9 23 3
176 68 179 76 2 4 11 7 20 7 17 0 221 105 293 152 36 23 45 34 42 51 l-4 22
-1050 0 c-577 0 -1061 -3 -1076 -7z"/>
</g>
</svg>
